# xmcd
#
# Track frame offsets:
#	150
#	21817
#	39160
#	57922
#	75952
#	94045
#	112450
#	134010
#	149512
#	171080
#	186735
#	212975
#	238607
#	257942
#	277262
#
# Disc length: 3989 seconds
#
# Revision: 0
# Processed by: cddbd v1.5.2PL0 Copyright (c) Steve Scherf et al.
# Submitted via: dBpowerAMP V4.0
#
DISCID=ea0f930f
DTITLE=Varios - Amar é... ...curtir uma boa música
DYEAR=1999
DGENRE=Ballad
TTITLE0=Rick Astley - Cry for Help
TTITLE1=Patrick Swaize - She's Like The Wind
TTITLE2=Michael Lears - That's Why (You Go Away)
TTITLE3=Bryan Adms - Heaven
TTITLE4=Air Supply - All out of Love
TTITLE5=Phil Collins -Separate Lives
TTITLE6=Any Lennox - No More "I Love You"
TTITLE7=Dionne Werwick - I"ll Never Love This Way Again
TTITLE8=Whitney Houston - Greatest Love Of All
TTITLE9=Phil Collins - A Groovy Kind Of Love
TTITLE10=Bon Jovi - Always
TTITLE11=Air Supply - Making Love Out OF Nothing At All
TTITLE12=Roxette - Is Must Have Been Love
TTITLE13=Bryan Ferry - Slave to Love
TTITLE14=Aretha Franklin - Ever Changing
EXTD=
EXTT0=
EXTT1=
EXTT2=
EXTT3=
EXTT4=
EXTT5=
EXTT6=
EXTT7=
EXTT8=
EXTT9=
EXTT10=
EXTT11=
EXTT12=
EXTT13=
EXTT14=
PLAYORDER=
